<?xml version="1.0" standalone="no"?>
<!DOCTYPE svg PUBLIC "-//W3C//DTD SVG 20010904//EN"
 "http://www.w3.org/TR/2001/REC-SVG-20010904/DTD/svg10.dtd">
<svg version="1.0" xmlns="http://www.w3.org/2000/svg"
 width="500.000000pt" height="495.000000pt" viewBox="0 0 500.000000 495.000000"
 preserveAspectRatio="xMidYMid meet">

<g transform="translate(0.000000,495.000000) scale(0.100000,-0.100000)"
fill="#000000" stroke="none">
<path d="M3065 4939 c-27 -5 -207 -34 -400 -64 -192 -30 -370 -59 -395 -64
l-45 -9 46 -1 c49 -1 109 -25 109 -43 0 -6 3 -8 7 -5 3 4 12 -1 20 -11 9 -11
12 -11 7 -2 -5 12 -4 13 6 3 8 -7 31 -10 59 -8 94 9 -494 -88 -1066 -175 -325
-50 -617 -99 -648 -110 -202 -70 -349 -223 -400 -420 -35 -131 -31 -168 169
-1475 102 -671 193 -1245 202 -1275 39 -137 146 -281 258 -349 97 -58 179 -83
296 -88 98 -4 172 5 1060 141 525 80 1196 182 1490 226 294 44 560 87 590 96
258 74 439 313 440 582 0 35 -29 257 -65 495 -83 560 -107 736 -101 751 2 6 5
2 5 -10 1 -11 8 -29 17 -40 8 -10 12 -12 8 -4 -8 17 29 -11 59 -45 10 -11 15
-13 11 -5 -7 13 -5 13 9 1 9 -7 17 -10 17 -5 0 14 -110 777 -115 801 -7 32
-62 91 -104 112 -104 52 -297 60 -516 20 -121 -22 -228 -28 -332 -18 -24 2
-43 7 -43 10 0 3 -18 16 -41 28 -78 44 -151 129 -202 231 -54 112 -80 199
-102 353 -20 138 -46 217 -90 282 -60 88 -119 113 -220 94z m259 -816 c4 -16
46 -287 111 -723 13 -91 21 -168 17 -172 -4 -4 -32 -8 -62 -10 l-55 -3 -103
205 c-57 113 -101 192 -98 175 47 -310 57 -398 49 -406 -5 -5 -41 -10 -79 -12
l-69 -2 -64 448 c-39 272 -61 451 -55 456 5 5 33 11 61 15 l53 7 100 -198 c56
-109 99 -184 96 -168 -24 157 -49 376 -44 381 6 5 72 17 125 23 6 0 14 -7 17
-16z m166 -13 c-12 -23 -4 -64 11 -55 5 4 9 1 9 -4 0 -6 5 -11 12 -11 6 0 22
-10 35 -22 19 -17 26 -20 32 -9 13 20 14 11 61 -299 24 -157 48 -291 53 -297
5 -7 17 -13 27 -13 35 0 38 21 21 144 -14 104 -19 120 -37 127 -17 6 -22 19
-28 70 -4 44 -3 65 6 70 15 10 157 23 164 16 3 -3 19 -88 36 -189 32 -197 32
-264 1 -306 -52 -72 -205 -101 -276 -52 -62 42 -74 80 -113 360 -46 337 -52
416 -30 458 9 18 19 32 22 32 2 0 0 -9 -6 -20z m-635 -500 c36 -244 63 -450
61 -456 -5 -14 -135 -29 -147 -17 -8 8 -129 831 -129 882 0 28 2 29 68 38 37
5 70 6 74 3 4 -3 37 -205 73 -450z m-341 412 c8 -13 137 -904 132 -910 -8 -7
-88 -21 -127 -22 l-37 0 -10 73 c-6 39 -19 127 -28 195 -9 67 -19 121 -20 119
-2 -1 -11 -73 -20 -160 -10 -86 -21 -157 -25 -157 -7 0 -89 189 -112 255 -11
35 -32 61 -24 30 16 -56 57 -379 50 -386 -4 -4 -43 -11 -85 -15 -63 -5 -78 -4
-78 7 0 8 -29 212 -64 454 -35 242 -62 443 -60 447 2 3 34 10 70 13 50 6 69 4
78 -6 7 -8 48 -109 92 -226 43 -116 80 -210 81 -209 1 1 10 105 19 231 10 134
21 235 28 242 6 7 36 17 66 22 30 5 58 9 62 10 4 0 9 -3 12 -7z m-686 -113
c80 -39 85 -56 136 -407 26 -172 46 -331 46 -353 0 -52 -31 -107 -76 -138 -52
-36 -167 -42 -221 -12 -74 42 -78 55 -129 402 -25 176 -44 336 -41 365 6 84
59 139 152 155 68 11 87 10 133 -12z m-475 -63 c44 -18 95 -78 103 -121 3 -19
7 -59 8 -87 l1 -53 -65 -21 c-36 -12 -68 -18 -73 -14 -4 3 -13 40 -20 81 -10
63 -15 74 -33 77 -47 7 -47 -9 0 -326 24 -166 47 -306 51 -312 3 -5 14 -10 24
-10 35 0 39 20 25 120 -8 52 -13 99 -10 106 5 13 142 19 150 6 3 -5 13 -55 21
-112 18 -122 11 -164 -40 -214 -55 -55 -173 -73 -245 -36 -80 41 -83 52 -160
607 -22 156 -22 164 -6 208 10 26 32 56 50 70 55 41 159 57 219 31z m3344
-678 c-3 -8 -6 -5 -6 6 -1 11 2 17 5 13 3 -3 4 -12 1 -19z m-752 -19 c8 -12
195 -1280 195 -1320 0 -33 -9 -36 -105 -45 l-75 -7 -147 301 c-81 166 -148
300 -149 299 -2 -2 17 -142 42 -312 25 -174 41 -312 36 -317 -15 -15 -204 -40
-215 -29 -9 9 -196 1267 -197 1323 0 30 3 32 102 46 34 5 63 5 74 -1 9 -5 81
-141 160 -301 80 -160 142 -277 139 -261 -32 197 -84 590 -77 597 4 4 48 14
97 22 117 18 113 18 120 5z m-900 -135 c55 -19 120 -79 142 -131 21 -52 156
-989 148 -1036 -12 -80 -76 -162 -149 -192 -57 -24 -171 -36 -223 -25 -82 19
-158 83 -183 156 -16 47 -140 920 -140 985 0 99 47 176 134 221 74 38 195 47
271 22z m-681 -109 c50 -24 104 -78 122 -122 8 -18 32 -156 54 -306 22 -150
54 -366 71 -482 18 -126 28 -225 25 -248 -13 -77 -70 -154 -141 -190 -17 -8
-67 -21 -112 -27 -70 -10 -89 -10 -138 5 -66 19 -145 89 -163 146 -17 49 -143
924 -144 989 0 128 87 225 224 249 75 14 157 8 202 -14z m-711 -91 c53 -18
122 -80 142 -128 21 -50 36 -157 25 -171 -16 -19 -187 -88 -203 -82 -8 3 -18
34 -25 82 -6 43 -16 82 -24 86 -32 21 -88 -2 -88 -34 1 -47 32 -203 44 -222 8
-13 82 -59 163 -104 159 -86 184 -106 201 -161 21 -66 64 -393 58 -433 -15
-93 -89 -176 -178 -201 -137 -38 -229 -27 -305 39 -57 49 -79 101 -99 238 -14
101 -14 121 -3 131 15 14 181 86 197 86 12 0 15 -14 38 -168 15 -102 19 -115
40 -124 36 -17 74 4 74 39 -1 51 -38 278 -50 304 -9 19 -53 49 -154 105 -159
89 -200 121 -215 167 -15 47 -43 254 -43 313 1 87 51 171 127 212 73 39 204
51 278 26z"/>
<path d="M1710 3770 c-13 -8 -9 -49 30 -322 l45 -313 28 -3 c18 -2 29 2 33 13
8 20 -76 606 -89 623 -11 14 -26 15 -47 2z"/>
<path d="M2880 2790 c-17 -31 114 -920 138 -938 17 -13 59 -8 77 9 10 10 -108
879 -126 927 -11 30 -73 32 -89 2z"/>
<path d="M2186 2694 c-9 -8 -16 -19 -16 -23 0 -43 133 -908 141 -918 15 -17
50 -17 75 1 19 14 18 23 -47 476 -46 320 -71 465 -80 471 -22 14 -56 10 -73
-7z"/>
<path d="M2158 813 c7 -3 16 -2 19 1 4 3 -2 6 -13 5 -11 0 -14 -3 -6 -6z"/>
<path d="M2083 803 c9 -2 23 -2 30 0 6 3 -1 5 -18 5 -16 0 -22 -2 -12 -5z"/>
<path d="M2013 793 c9 -2 23 -2 30 0 6 3 -1 5 -18 5 -16 0 -22 -2 -12 -5z"/>
<path d="M1690 750 c-135 -21 -258 -41 -275 -43 -16 -3 13 -4 65 -2 52 2 106
7 120 10 14 3 108 21 210 40 249 45 182 42 -120 -5z"/>
<path d="M1238 703 c6 -2 18 -2 25 0 6 3 1 5 -13 5 -14 0 -19 -2 -12 -5z"/>
<path d="M1348 693 c7 -3 16 -2 19 1 4 3 -2 6 -13 5 -11 0 -14 -3 -6 -6z"/>
</g>
</svg>
